<svg width="491" height="117" fill="none" xmlns="http://www.w3.org/2000/svg"><path d="M19.776 89.28c-5.056 0-9.344-1.472-12.864-4.416-3.776-3.072-5.664-7.072-5.664-12 0-5.12 2.048-9.472 6.144-13.056 3.84-3.392 8.416-5.088 13.728-5.088 3.968 0 7.104 1.024 9.408 3.072 2.496 2.112 3.744 5.12 3.744 9.024 0 2.88-1.376 5.44-4.128 7.68-2.56 2.112-5.376 3.168-8.448 3.168-2.432 0-4.544-.512-6.336-1.536-2.304-1.152-3.456-2.88-3.456-5.184 0-1.024.352-2.08 1.056-3.168.64-1.216 1.504-1.824 2.592-1.824.256 0 .384.096.384.288 0 .064-.288.352-.864.864l-.768.768c-.192.192-.32.352-.384.48-.448.896-.672 1.728-.672 2.496 0 1.856.768 3.36 2.304 4.512 1.472 1.088 3.136 1.632 4.992 1.632 3.136 0 5.76-1.152 7.872-3.456 2.112-2.24 3.168-4.928 3.168-8.064s-.992-5.6-2.976-7.392c-1.984-1.792-4.544-2.688-7.68-2.688-4.864 0-8.992 1.92-12.384 5.76-3.136 3.584-4.704 7.936-4.704 13.056 0 4.416 1.824 7.968 5.472 10.656 3.2 2.432 7.136 3.648 11.808 3.648h1.344c5.44-.768 9.984-3.296 13.632-7.584 1.344-1.664 2.624-3.648 3.84-5.952 1.28-2.304 2.496-5.024 3.648-8.16.896-2.496 1.76-4.992 2.592-7.488.832-2.56 1.728-5.088 2.688-7.584a47.183 47.183 0 013.648-7.68 51.44 51.44 0 014.704-6.816c4.096-5.056 8.384-8.512 12.864-10.368-3.392.064-6.688.32-9.888.768a51.513 51.513 0 00-9.024 2.112c-7.808 2.496-12.544 6.208-14.208 11.136a6.695 6.695 0 00-.384 2.304c0 1.536.48 2.784 1.44 3.744 1.088.96 2.368 1.44 3.84 1.44 3.136 0 5.312-1.824 6.528-5.472.256-.704.384-1.216.384-1.536 0-.256-.032-.48-.096-.672v-.576l.192-.192c.32 0 .48.416.48 1.248 0 2.24-.8 4.128-2.4 5.664-1.6 1.6-3.488 2.4-5.664 2.4-1.92 0-3.52-.576-4.8-1.728-1.28-1.152-1.92-2.688-1.92-4.608 0-5.952 4.8-10.496 14.4-13.632a58.809 58.809 0 0110.848-2.4 81.408 81.408 0 0111.136-.768h1.632v.096h.096c-.64.32-1.344.768-2.112 1.344a39.17 39.17 0 00-2.4 1.92c-6.144 5.184-10.624 12.064-13.44 20.64-1.984 5.952-3.744 10.912-5.28 14.88-1.536 3.904-2.88 6.816-4.032 8.736-4.736 7.936-11.296 12.896-19.68 14.88-.96.256-1.952.416-2.976.48-.96.128-1.952.192-2.976.192zm68.448 6.144c-4.992 0-9.472-2.016-13.44-6.048-1.536-1.536-3.04-3.424-4.512-5.664-1.472-2.24-2.912-4.832-4.32-7.776a345.043 345.043 0 01-3.168-7.104 345.043 345.043 0 00-3.168-7.104 11.5 11.5 0 01-2.976.384c-1.088 0-1.984-.224-2.688-.672-1.024-.448-1.536-1.152-1.536-2.112 0-.896.288-1.728.864-2.496.576-.704 1.312-1.056 2.208-1.056 1.984 0 4 1.408 6.048 4.224 1.472-.704 3.488-2.144 6.048-4.32 2.624-2.24 5.824-5.152 9.6-8.736a297.264 297.264 0 015.568-5.28 257.726 257.726 0 014.128-3.744c8.96-7.552 15.936-11.328 20.928-11.328.832 0 1.728.192 2.688.576 1.152.448 1.728 1.088 1.728 1.92 0 .384-.224.576-.672.576a.651.651 0 01-.48-.192c-.576-.64-1.408-.96-2.496-.96-2.688 0-6.432 1.536-11.232 4.608a151.981 151.981 0 00-5.28 3.552 47.109 47.109 0 00-4.8 4.032 236.89 236.89 0 00-5.952 5.568 253.222 253.222 0 01-5.952 5.568c-2.496 2.368-4.832 4.32-7.008 5.856-2.176 1.472-4.192 2.56-6.048 3.264a661.393 661.393 0 015.472 8.832 408.215 408.215 0 005.664 8.736c2.624 4.032 5.088 7.2 7.392 9.504 2.368 2.304 4.448 3.808 6.24 4.512.576.192 1.152.352 1.728.48.64.128 1.216.192 1.728.192 3.84 0 6.112-2.272 6.816-6.816 0-.256.128-.384.384-.384.704 0 1.056.288 1.056.864 0 .448-.064.896-.192 1.344a14.142 14.142 0 01-.48 1.536c-1.664 3.776-4.96 5.664-9.888 5.664zM57.504 60.96h.96c.256 0 .512-.032.768-.096-1.152-2.304-2.336-3.456-3.552-3.456-1.216 0-1.824.608-1.824 1.824 0 .896.384 1.44 1.152 1.632.128 0 .384.032.768.096h1.728zm32.25 23.616c-1.6 0-2.88-.544-3.84-1.632-.896-1.088-1.344-2.4-1.344-3.936 0-1.408.416-3.264 1.248-5.568.896-2.304 2.144-5.056 3.744-8.256.704-1.408 1.6-3.104 2.688-5.088a234.38 234.38 0 014.128-7.008h.192c.448.32.96.48 1.536.48 1.344 0 2.88-.672 4.608-2.016l.192.192c-.96 1.088-2.624 3.744-4.992 7.968a148.343 148.343 0 01-2.208 3.744 73.63 73.63 0 01-1.92 3.264c-3.776 6.464-5.664 11.2-5.664 14.208 0 1.728.8 2.592 2.4 2.592 3.584 0 8.544-5.6 14.88-16.8.896-1.6 1.952-3.584 3.168-5.952 1.216-2.368 2.624-5.12 4.224-8.256h.192c.448.192.864.352 1.248.48s.768.192 1.152.192c1.408 0 2.4-.64 2.976-1.92l.288.096-7.488 14.496c-4.416 8.448-6.624 13.792-6.624 16.032 0 1.152.544 1.728 1.632 1.728.768 0 1.696-.32 2.784-.96 1.152-.64 2.336-1.632 3.552-2.976 1.536-1.792 2.848-3.488 3.936-5.088 1.152-1.664 2.464-3.904 3.936-6.72.192-.32.384-.48.576-.48.384 0 .384.32 0 .96a113.364 113.364 0 01-3.744 6.528c-1.28 2.112-2.848 4.096-4.704 5.952-2.432 2.432-4.576 3.648-6.432 3.648-1.664 0-2.944-.416-3.84-1.248-.832-.832-1.248-2.176-1.248-4.032 0-1.536.32-3.232.96-5.088-4.288 6.976-8.352 10.464-12.192 10.464zm51.162 8.736c-5.824 0-10.624-1.696-14.4-5.088-3.904-3.52-5.856-8.192-5.856-14.016 0-5.056 1.504-9.344 4.512-12.864 3.136-3.712 7.264-5.568 12.384-5.568.32 0 .64.032.96.096h.96c3.072.384 5.632 1.888 7.68 4.512 2.112 2.56 3.168 5.376 3.168 8.448 0 3.456-1.408 6.496-4.224 9.12-2.752 2.496-5.888 3.744-9.408 3.744-.704 0-1.056-.128-1.056-.384 0-.192.576-.384 1.728-.576 1.728-.192 3.264-.64 4.608-1.344a13.34 13.34 0 003.552-2.688c1.92-2.24 2.88-5.088 2.88-8.544 0-2.624-.768-4.992-2.304-7.104-1.792-2.304-3.904-3.584-6.336-3.84h-.96a5.394 5.394 0 00-1.056-.096c-4.672 0-8.512 1.568-11.52 4.704-2.816 3.136-4.224 7.04-4.224 11.712 0 5.44 1.632 9.856 4.896 13.248 3.392 3.392 7.776 5.088 13.152 5.088.32 0 .608-.032.864-.096h.768c5.696-.576 10.816-3.232 15.36-7.968 2.624-2.752 6.016-7.584 10.176-14.496a546.22 546.22 0 013.552-6.048 292.683 292.683 0 015.28-8.352c3.136-4.736 6.368-8.864 9.696-12.384 3.328-3.584 6.72-6.56 10.176-8.928-7.296-3.776-11.808-5.984-13.536-6.624-5.44-2.24-10.272-3.36-14.496-3.36-1.6 0-3.168.16-4.704.48-1.536.32-3.008.768-4.416 1.344-3.328 1.344-6.048 3.552-8.16 6.624-2.176 3.072-3.264 6.368-3.264 9.888 0 3.712 1.248 6.72 3.744 9.024 2.496 2.304 5.6 3.456 9.312 3.456 3.648 0 7.008-1.184 10.08-3.552 3.072-2.496 4.608-5.632 4.608-9.408 0-2.624-.832-4.928-2.496-6.912-1.728-2.048-3.936-3.072-6.624-3.072-2.112 0-4 .736-5.664 2.208-1.728 1.536-2.592 3.36-2.592 5.472 0 1.408.448 2.496 1.344 3.264.896.832 1.344 1.376 1.344 1.632 0 .064-.032.128-.096.192-.192 0-.48-.128-.864-.384-1.728-1.28-2.592-2.912-2.592-4.896 0-2.432.96-4.448 2.88-6.048 1.792-1.6 3.936-2.4 6.432-2.4 2.816 0 5.312 1.024 7.488 3.072 2.048 2.176 3.072 4.704 3.072 7.584 0 4.096-1.76 7.584-5.28 10.464-3.392 2.816-7.136 4.224-11.232 4.224-4.352 0-7.872-1.408-10.56-4.224-2.752-2.688-4.128-6.24-4.128-10.656 0-3.968 1.056-7.616 3.168-10.944 2.304-3.584 5.216-5.984 8.736-7.2a28.915 28.915 0 0110.176-1.824c2.432 0 4.928.32 7.488.96 2.624.576 5.28 1.568 7.968 2.976a148.872 148.872 0 017.008 3.84 247.138 247.138 0 007.008 3.936c4.224-2.752 7.904-4.128 11.04-4.128 1.408 0 2.784.384 4.128 1.152 1.6.96 2.4 2.08 2.4 3.36 0 1.472-.8 2.624-2.4 3.456a8.566 8.566 0 01-4.32 1.152c-1.088 0-2.464-.256-4.128-.768-.832 1.344-1.6 2.976-2.304 4.896-.64 1.92-1.12 4.16-1.44 6.72-.192 1.216-.384 2.88-.576 4.992a405.102 405.102 0 00-.384 7.488c-.576 11.712-2.368 19.36-5.376 22.944 1.152-.128 2.496-.736 4.032-1.824 5.888-4.16 11.52-13.152 16.896-26.976 9.664-24.64 20.352-36.96 32.064-36.96 2.752 0 4.96.512 6.624 1.536 2.112 1.216 3.168 3.104 3.168 5.664 0 .256-.064.608-.192 1.056a18.95 18.95 0 01-.48 1.44c-.384 1.28-.832 1.92-1.344 1.92-.192 0-.288-.192-.288-.576h-.096c.32-.576.544-1.12.672-1.632.192-.576.288-1.12.288-1.632 0-1.6-.736-2.944-2.208-4.032-1.344-.96-2.88-1.44-4.608-1.44-3.648 0-7.264 1.408-10.848 4.224-2.368 1.792-4.608 3.968-6.72 6.528-2.112 2.496-4.128 5.344-6.048 8.544-1.28 2.048-2.656 4.576-4.128 7.584-1.472 2.944-3.072 6.368-4.8 10.272-1.6 3.52-3.072 6.624-4.416 9.312-1.344 2.688-2.592 4.896-3.744 6.624-3.904 5.824-8.256 9.696-13.056 11.616a20.471 20.471 0 01-2.88.864c-.896.256-1.696.384-2.4.384-.576 0-.992-.064-1.248-.192l-.192-.096c0-.128.512-.384 1.536-.768 1.664-.576 3.04-1.632 4.128-3.168.512-.704.768-2.24.768-4.608 0-.768-.032-1.728-.096-2.88-.064-1.216-.16-2.624-.288-4.224a204.16 204.16 0 01-.288-4.224 54.733 54.733 0 01-.096-2.976c0-4.736.64-9.504 1.92-14.304 1.536-5.76 3.744-9.984 6.624-12.672a121.85 121.85 0 00-2.4-1.056 62.165 62.165 0 00-2.88-1.344c-3.456 2.496-6.976 5.824-10.56 9.984a78.572 78.572 0 00-4.704 6.144c-1.408 1.984-2.592 3.968-3.552 5.952A91.284 91.284 0 00176.052 60c-.704 1.536-1.6 3.328-2.688 5.376-8.704 17.088-18.88 26.368-30.528 27.84a3.569 3.569 0 01-.864.096h-1.056zm67.2-56.256c2.944 0 4.416-.992 4.416-2.976 0-1.152-.704-2.176-2.112-3.072-1.28-.704-2.56-1.056-3.84-1.056-2.496 0-5.408 1.088-8.736 3.264.896.448 1.76.896 2.592 1.344.832.384 1.632.736 2.4 1.056 1.344-1.152 2.4-1.728 3.168-1.728.384 0 .576.128.576.384 0 .192-.128.288-.384.288-.64.448-1.248.992-1.824 1.632 1.536.576 2.784.864 3.744.864zm15.794 47.52c-1.6 0-2.88-.544-3.84-1.632-.896-1.088-1.344-2.4-1.344-3.936 0-1.408.416-3.264 1.248-5.568.896-2.304 2.144-5.056 3.744-8.256.704-1.408 1.6-3.104 2.688-5.088a234.38 234.38 0 014.128-7.008h.192c.448.32.96.48 1.536.48 1.344 0 2.88-.672 4.608-2.016l.192.192c-.96 1.088-2.624 3.744-4.992 7.968a148.343 148.343 0 01-2.208 3.744 73.63 73.63 0 01-1.92 3.264c-3.776 6.464-5.664 11.2-5.664 14.208 0 1.728.8 2.592 2.4 2.592 3.584 0 8.544-5.6 14.88-16.8.896-1.6 1.952-3.584 3.168-5.952 1.216-2.368 2.624-5.12 4.224-8.256h.192c.448.192.864.352 1.248.48s.768.192 1.152.192c1.408 0 2.4-.64 2.976-1.92l.288.096-7.488 14.496c-4.416 8.448-6.624 13.792-6.624 16.032 0 1.152.544 1.728 1.632 1.728.768 0 1.696-.32 2.784-.96 1.152-.64 2.336-1.632 3.552-2.976 1.536-1.792 2.848-3.488 3.936-5.088 1.152-1.664 2.464-3.904 3.936-6.72.192-.32.384-.48.576-.48.384 0 .384.32 0 .96a113.364 113.364 0 01-3.744 6.528c-1.28 2.112-2.848 4.096-4.704 5.952-2.432 2.432-4.576 3.648-6.432 3.648-1.664 0-2.944-.416-3.84-1.248-.832-.832-1.248-2.176-1.248-4.032 0-1.536.32-3.232.96-5.088-4.288 6.976-8.352 10.464-12.192 10.464zm36.378.576c-6.464 0-9.696-3.072-9.696-9.216 0-1.728.288-3.584.864-5.568v.096c.32-1.152.928-2.272 1.824-3.36 1.088-1.344 2.08-2.016 2.976-2.016h.288c.192 0 .512.064.96.192l1.056-1.632a44.503 44.503 0 002.4-4.032 86.878 86.878 0 012.4-4.128c2.368-4.096 4.16-6.304 5.376-6.624.384-.128.672-.192.864-.192.96 0 1.44.352 1.44 1.056 0 .832-.704 1.344-2.112 1.536-1.28.192-2.08.352-2.4.48-.512.384-.768 1.216-.768 2.496 0 1.344.864 3.616 2.592 6.816 1.728 3.136 2.592 5.92 2.592 8.352a8.39 8.39 0 01-.192 1.824c-.064.576-.16 1.184-.288 1.824-1.728 7.232-6.304 10.848-13.728 10.848 1.472.32 2.816.48 4.032.48 2.24 0 4.416-.384 6.528-1.152a23.185 23.185 0 005.856-3.36c1.856-1.472 3.552-3.232 5.088-5.28a40.298 40.298 0 004.128-6.72c.192-.384.384-.576.576-.576.384 0 .416.32.096.96a65 65 0 01-3.264 5.472 31.569 31.569 0 01-3.552 4.512c-1.536 1.536-3.616 3.072-6.24 4.608-2.624 1.536-5.856 2.304-9.696 2.304zm-4.224-2.016c3.264 0 5.952-2.464 8.064-7.392 1.728-3.84 2.592-7.712 2.592-11.616 0-.512-.096-1.184-.288-2.016-.128-.896-.352-1.952-.672-3.168a46.902 46.902 0 01-.576-2.976c-.128-.896-.16-1.664-.096-2.304a88.108 88.108 0 01-3.648 6.624 135.908 135.908 0 01-3.456 5.376c.32.512.48 1.024.48 1.536 0 .896-.352 1.888-1.056 2.976-.448.64-1.216 1.248-2.304 1.824-1.088.576-1.856 1.12-2.304 1.632-.704 1.024-1.056 2.368-1.056 4.032 0 3.648 1.44 5.472 4.32 5.472zm45.948 1.152c-3.328 0-4.992-2.304-4.992-6.912 0-1.792.288-3.84.864-6.144-4.48 8.64-8.928 12.96-13.344 12.96-2.112 0-3.712-1.056-4.8-3.168-.896-1.6-1.344-3.616-1.344-6.048 0-1.984.288-4.064.864-6.24 1.088-3.776 3.392-7.328 6.912-10.656 3.904-3.584 7.616-5.376 11.136-5.376 3.2 0 4.8 1.92 4.8 5.76 0 1.664-.352 3.616-1.056 5.856l5.856-11.52h.288c.192.32.608.48 1.248.48 1.28 0 2.912-.768 4.896-2.304l.192.192-8.16 15.936c-3.264 6.336-4.896 11.136-4.896 14.4 0 1.28.576 1.92 1.728 1.92.768 0 1.696-.288 2.784-.864 1.088-.576 2.24-1.536 3.456-2.88 1.536-1.792 2.848-3.488 3.936-5.088 1.152-1.664 2.464-3.904 3.936-6.72.192-.32.384-.48.576-.48.384 0 .384.32 0 .96a113.364 113.364 0 01-3.744 6.528c-1.28 2.112-2.848 4.096-4.704 5.952-2.304 2.304-4.448 3.456-6.432 3.456zm-17.088-.768c3.584 0 8.192-5.056 13.824-15.168 1.792-3.2 2.688-6.432 2.688-9.696 0-3.456-1.12-5.184-3.36-5.184-2.432 0-5.184 2.016-8.256 6.048a48.467 48.467 0 00-3.168 4.896c-.832 1.6-1.504 3.136-2.016 4.608-1.344 3.84-2.016 7.296-2.016 10.368 0 2.752.768 4.128 2.304 4.128zm23.994 1.248c-.064 0-.096-.064-.096-.192s.032-.224.096-.288c16.704-40.32 31.104-60.48 43.2-60.48 2.944 0 4.416 1.248 4.416 3.744 0 2.624-1.184 5.536-3.552 8.736-4.48 6.272-10.752 11.264-18.816 14.976-2.24 1.024-4.032 1.696-5.376 2.016-.128.064-.352.096-.672.096a376.601 376.601 0 00-6.048 10.848c-1.92 3.52-3.712 7.04-5.376 10.56 9.152-15.488 16.96-23.232 23.424-23.232 2.368 0 3.552 1.12 3.552 3.36 0 3.648-2.752 6.592-8.256 8.832-.576.256-1.376.544-2.4.864a70.75 70.75 0 01-3.84 1.056h.192c.704 0 1.312.576 1.824 1.728.128.448.256.928.384 1.44.128.448.192.928.192 1.44 0 1.216-.288 2.976-.864 5.28a50.013 50.013 0 00-.576 3.168c-.128.832-.192 1.536-.192 2.112 0 1.792.768 2.688 2.304 2.688 2.432 0 5.12-2.048 8.064-6.144a30.77 30.77 0 002.88-4.224 102.96 102.96 0 002.784-4.896c.128-.256.352-.416.672-.48.32-.064.32.192 0 .768a67.381 67.381 0 01-2.88 5.184 40.278 40.278 0 01-3.168 4.704c-3.136 4.032-6.144 6.048-9.024 6.048-4.224 0-6.336-1.664-6.336-4.992 0-1.344.384-3.296 1.152-5.856.768-2.624 1.152-4.512 1.152-5.664 0-1.536-.864-2.304-2.592-2.304-.256 0-.384-.096-.384-.288 0-.256.192-.384.576-.384a17.84 17.84 0 003.552-.576 19.75 19.75 0 003.84-1.632c2.432-1.216 4.448-2.784 6.048-4.704 1.472-1.856 2.208-3.392 2.208-4.608 0-.768-.448-1.152-1.344-1.152-2.112 0-5.024 1.76-8.736 5.28a73.965 73.965 0 00-3.84 3.936 55.295 55.295 0 00-3.36 4.128c-2.368 3.136-5.056 7.456-8.064 12.96-.384.64-.832 1.44-1.344 2.4-.448.896-.992 1.92-1.632 3.072h-.096c0 .064-.032.096-.096.096-.448-.384-.864-.576-1.248-.576-.64 0-1.152.192-1.536.576-.448.384-.704.576-.768.576zm19.776-32.256h.192c4.224-1.088 8.832-3.744 13.824-7.968 8.512-7.104 12.768-12.896 12.768-17.376 0-1.536-.8-2.304-2.4-2.304-3.648 0-8.256 3.744-13.824 11.232-1.216 1.6-2.688 3.776-4.416 6.528-1.728 2.688-3.776 5.984-6.144 9.888zm19.341 32.064c-1.6 0-2.88-.544-3.84-1.632-.896-1.088-1.344-2.4-1.344-3.936 0-1.408.416-3.264 1.248-5.568.896-2.304 2.144-5.056 3.744-8.256.704-1.408 1.6-3.104 2.688-5.088a234.38 234.38 0 014.128-7.008h.192c.448.32.96.48 1.536.48 1.344 0 2.88-.672 4.608-2.016l.192.192c-.96 1.088-2.624 3.744-4.992 7.968a148.343 148.343 0 01-2.208 3.744 73.63 73.63 0 01-1.92 3.264c-3.776 6.464-5.664 11.2-5.664 14.208 0 1.728.8 2.592 2.4 2.592 3.584 0 8.544-5.6 14.88-16.8.896-1.6 1.952-3.584 3.168-5.952 1.216-2.368 2.624-5.12 4.224-8.256h.192c.448.192.864.352 1.248.48s.768.192 1.152.192c1.408 0 2.4-.64 2.976-1.92l.288.096-7.488 14.496c-4.416 8.448-6.624 13.792-6.624 16.032 0 1.152.544 1.728 1.632 1.728.768 0 1.696-.32 2.784-.96 1.152-.64 2.336-1.632 3.552-2.976 1.536-1.792 2.848-3.488 3.936-5.088 1.152-1.664 2.464-3.904 3.936-6.72.192-.32.384-.48.576-.48.384 0 .384.32 0 .96a113.364 113.364 0 01-3.744 6.528c-1.28 2.112-2.848 4.096-4.704 5.952-2.432 2.432-4.576 3.648-6.432 3.648-1.664 0-2.944-.416-3.84-1.248-.832-.832-1.248-2.176-1.248-4.032 0-1.536.32-3.232.96-5.088-4.288 6.976-8.352 10.464-12.192 10.464z" fill="#8F5600"/><path fill-rule="evenodd" clip-rule="evenodd" d="M431.785 53.333c7.078 5.143 18.929 3.203 24.072-3.875 5.142-7.077 7.747-34.76 7.747-34.76s-26.806 7.854-33.166 14.85c-6.361 6.996-5.731 18.643 1.347 23.785z" fill="#80D25B"/><path d="M453.879 26.35s-14.577 8.947-19.878 25.426C428.7 68.256 413 66.384 413 66.384" stroke="#22BA8E" stroke-width="3" stroke-linecap="round"/><path d="M446.064 47.142l-9.744-.414-4.716-8.31m17.452.03l-6.644-1.36-2.134-5.417" stroke="#22BA8E" stroke-width="2" stroke-linecap="round"/><path fill-rule="evenodd" clip-rule="evenodd" d="M426.081 68.042c-4.342 7.595-1.124 19.165 6.471 23.507 7.595 4.341 35.397 3.919 35.397 3.919s-10.725-25.793-18.371-31.354c-7.647-5.561-19.156-3.668-23.497 3.928z" fill="#80D25B"/><path d="M455.308 87.068s-10.481-13.517-27.438-16.993c-16.958-3.477-16.806-19.287-16.806-19.287" stroke="#22BA8E" stroke-width="3" stroke-linecap="round"/><path d="M433.789 81.562l-.649-9.73 7.747-5.593m1.87 17.351l.628-6.752 5.154-2.71" stroke="#22BA8E" stroke-width="2" stroke-linecap="round"/><path fill-rule="evenodd" clip-rule="evenodd" d="M418.475 66.067c-6.837-5.458-18.764-4.06-24.223 2.777s-9.319 34.373-9.319 34.373 27.135-6.628 33.807-13.328c6.672-6.7 6.572-18.363-.265-23.822z" fill="#80D25B"/><path d="M395.178 92.019s14.968-8.276 21.013-24.497c6.044-16.22 21.642-13.638 21.642-13.638" stroke="#22BA8E" stroke-width="3" stroke-linecap="round"/><path d="M403.929 71.603l9.715.857 4.334 8.515m-17.433-.822l6.576 1.66 1.885 5.508" stroke="#22BA8E" stroke-width="2" stroke-linecap="round"/><path fill-rule="evenodd" clip-rule="evenodd" d="M414.353 56.333c-6.272 5.143-16.775 3.203-21.333-3.875-4.557-7.077-6.865-34.76-6.865-34.76s23.755 7.854 29.392 14.85c5.636 6.996 5.078 18.643-1.194 23.785z" fill="#80D25B"/><path d="M394.773 29.35s12.919 8.947 17.616 25.426C417.087 71.256 431 69.384 431 69.384" stroke="#22BA8E" stroke-width="3" stroke-linecap="round"/><path d="M401.699 50.142l8.635-.414 4.179-8.31m-15.466.03l5.888-1.36 1.891-5.417" stroke="#22BA8E" stroke-width="2" stroke-linecap="round"/><path d="M438.95 59.05A14.93 14.93 0 01424 73.95a14.93 14.93 0 01-14.95-14.9h29.9z" fill="#F9F9F9" stroke="#626262" stroke-width=".1"/><path d="M424 44c-8.3 0-15 6.7-15 15h30c0-8.3-6.7-15-15-15z" fill="#ED4C5C"/></svg>